<?xml version="1.0" encoding="UTF-8" standalone="no"?>
<!-- Created with Inkscape (http://www.inkscape.org/) -->

<svg
   xmlns:dc="http://purl.org/dc/elements/1.1/"
   xmlns:cc="http://creativecommons.org/ns#"
   xmlns:rdf="http://www.w3.org/1999/02/22-rdf-syntax-ns#"
   xmlns:svg="http://www.w3.org/2000/svg"
   xmlns="http://www.w3.org/2000/svg"
   xmlns:sodipodi="http://sodipodi.sourceforge.net/DTD/sodipodi-0.dtd"
   xmlns:inkscape="http://www.inkscape.org/namespaces/inkscape"
   width="512"
   height="512"
   viewBox="0 0 512.00001 512.00001"
   id="svg2"
   version="1.1"
   inkscape:version="0.91 r13725"
   sodipodi:docname="pizza.svg">
  <defs
     id="defs4" />
  <sodipodi:namedview
     id="base"
     pagecolor="#ffffff"
     bordercolor="#666666"
     borderopacity="1.0"
     inkscape:pageopacity="0.0"
     inkscape:pageshadow="2"
     inkscape:zoom="0.7"
     inkscape:cx="-241.2495"
     inkscape:cy="137.5441"
     inkscape:document-units="px"
     inkscape:current-layer="layer1"
     showgrid="false"
     units="px"
     showguides="false"
     inkscape:window-width="1920"
     inkscape:window-height="1017"
     inkscape:window-x="1272"
     inkscape:window-y="-8"
     inkscape:window-maximized="1" />
  <metadata
     id="metadata7">
    <rdf:RDF>
      <cc:Work
         rdf:about="">
        <dc:format>image/svg+xml</dc:format>
        <dc:type
           rdf:resource="http://purl.org/dc/dcmitype/StillImage" />
        <dc:title />
      </cc:Work>
    </rdf:RDF>
  </metadata>
  <g
     inkscape:label="Layer 1"
     inkscape:groupmode="layer"
     id="layer1"
     transform="translate(0,-540.36216)">
    <circle
       style="fill:#aa0000;fill-opacity:1;stroke:none;stroke-width:5;stroke-linejoin:round;stroke-miterlimit:4;stroke-dasharray:none;stroke-opacity:1"
       id="path4136"
       cx="256"
       cy="796.36218"
       r="256" />
    <path
       style="fill:#ffe680;fill-opacity:1;stroke:#cb8439;stroke-width:17.12194633;stroke-linejoin:round;stroke-miterlimit:4;stroke-dasharray:none;stroke-opacity:1"
       id="path4136-3"
       sodipodi:type="arc"
       sodipodi:cx="228.50175"
       sodipodi:cy="796.3457"
       sodipodi:rx="189.7581"
       sodipodi:ry="189.7581"
       sodipodi:start="0.018609202"
       sodipodi:end="5.3493805"
       d="M 418.227,799.87675 A 189.7581,189.7581 0 0 1 269.81894,981.55107 189.7581,189.7581 0 0 1 58.266656,880.17976 189.7581,189.7581 0 0 1 106.88125,650.68655 189.7581,189.7581 0 0 1 341.36601,643.80129 L 228.50175,796.3457 Z" />
    <path
       style="fill:#800000;fill-opacity:1;stroke:none;stroke-width:5;stroke-linejoin:round;stroke-miterlimit:4;stroke-dasharray:none;stroke-opacity:1"
       id="path4153"
       sodipodi:type="arc"
       sodipodi:cx="131.82491"
       sodipodi:cy="862.9585"
       sodipodi:rx="21.718279"
       sodipodi:ry="21.718279"
       sodipodi:start="0"
       sodipodi:end="6.1395273"
       sodipodi:open="true"
       d="m 153.54318,862.9585 a 21.718279,21.718279 0 0 1 -20.93844,21.70427 21.718279,21.718279 0 0 1 -22.44211,-20.14561 21.718279,21.718279 0 0 1 19.3268,-23.151 21.718279,21.718279 0 0 1 23.83003,18.48305" />
    <path
       style="fill:#ffe680;fill-opacity:1;stroke:#cb8439;stroke-width:17.12194633;stroke-linejoin:round;stroke-miterlimit:4;stroke-dasharray:none;stroke-opacity:1"
       id="path4136-3-5"
       sodipodi:type="arc"
       sodipodi:cx="283.49249"
       sodipodi:cy="771.61969"
       sodipodi:rx="189.7581"
       sodipodi:ry="189.7581"
       sodipodi:start="5.3633234"
       sodipodi:end="0.010954826"
       d="m 398.47262,620.66371 a 189.7581,189.7581 0 0 1 74.76659,153.03471 l -189.74672,-2.07873 z" />
    <path
       style="fill:#800000;fill-opacity:1;stroke:none;stroke-width:5;stroke-linejoin:round;stroke-miterlimit:4;stroke-dasharray:none;stroke-opacity:1"
       id="path4153-6"
       sodipodi:type="arc"
       sodipodi:cx="171.72594"
       sodipodi:cy="914.98138"
       sodipodi:rx="21.718279"
       sodipodi:ry="21.718279"
       sodipodi:start="0"
       sodipodi:end="6.1395273"
       sodipodi:open="true"
       d="m 193.44422,914.98138 a 21.718279,21.718279 0 0 1 -20.93845,21.70428 21.718279,21.718279 0 0 1 -22.44211,-20.14561 21.718279,21.718279 0 0 1 19.3268,-23.15101 21.718279,21.718279 0 0 1 23.83003,18.48306" />
    <path
       style="fill:#800000;fill-opacity:1;stroke:none;stroke-width:5;stroke-linejoin:round;stroke-miterlimit:4;stroke-dasharray:none;stroke-opacity:1"
       id="path4153-64"
       sodipodi:type="arc"
       sodipodi:cx="199.00006"
       sodipodi:cy="829.11841"
       sodipodi:rx="21.718279"
       sodipodi:ry="21.718279"
       sodipodi:start="0"
       sodipodi:end="6.1395273"
       sodipodi:open="true"
       d="m 220.71834,829.11841 a 21.718279,21.718279 0 0 1 -20.93845,21.70427 21.718279,21.718279 0 0 1 -22.44211,-20.14561 21.718279,21.718279 0 0 1 19.3268,-23.151 21.718279,21.718279 0 0 1 23.83004,18.48305" />
    <path
       style="fill:#800000;fill-opacity:1;stroke:none;stroke-width:5;stroke-linejoin:round;stroke-miterlimit:4;stroke-dasharray:none;stroke-opacity:1"
       id="path4153-64-6"
       sodipodi:type="arc"
       sodipodi:cx="309.10666"
       sodipodi:cy="897.80878"
       sodipodi:rx="21.718279"
       sodipodi:ry="21.718279"
       sodipodi:start="0"
       sodipodi:end="6.1395273"
       sodipodi:open="true"
       d="m 330.82494,897.80878 a 21.718279,21.718279 0 0 1 -20.93845,21.70427 21.718279,21.718279 0 0 1 -22.44211,-20.14561 21.718279,21.718279 0 0 1 19.3268,-23.151 21.718279,21.718279 0 0 1 23.83004,18.48305" />
    <path
       style="fill:#800000;fill-opacity:1;stroke:none;stroke-width:5;stroke-linejoin:round;stroke-miterlimit:4;stroke-dasharray:none;stroke-opacity:1"
       id="path4153-64-61"
       sodipodi:type="arc"
       sodipodi:cx="272.74118"
       sodipodi:cy="838.20972"
       sodipodi:rx="21.718279"
       sodipodi:ry="21.718279"
       sodipodi:start="0"
       sodipodi:end="6.1395273"
       sodipodi:open="true"
       d="m 294.45946,838.20972 a 21.718279,21.718279 0 0 1 -20.93845,21.70427 21.718279,21.718279 0 0 1 -22.44211,-20.14561 21.718279,21.718279 0 0 1 19.3268,-23.151 21.718279,21.718279 0 0 1 23.83004,18.48305" />
    <path
       style="fill:#800000;fill-opacity:1;stroke:none;stroke-width:5;stroke-linejoin:round;stroke-miterlimit:4;stroke-dasharray:none;stroke-opacity:1"
       id="path4153-64-0"
       sodipodi:type="arc"
       sodipodi:cx="151.52289"
       sodipodi:cy="730.12341"
       sodipodi:rx="21.718279"
       sodipodi:ry="21.718279"
       sodipodi:start="0"
       sodipodi:end="6.1395273"
       sodipodi:open="true"
       d="m 173.24117,730.12341 a 21.718279,21.718279 0 0 1 -20.93845,21.70428 21.718279,21.718279 0 0 1 -22.44211,-20.14562 21.718279,21.718279 0 0 1 19.3268,-23.151 21.718279,21.718279 0 0 1 23.83004,18.48306" />
    <path
       style="fill:#800000;fill-opacity:1;stroke:none;stroke-width:5;stroke-linejoin:round;stroke-miterlimit:4;stroke-dasharray:none;stroke-opacity:1"
       id="path4153-64-8"
       sodipodi:type="arc"
       sodipodi:cx="222.23357"
       sodipodi:cy="747.29602"
       sodipodi:rx="21.718279"
       sodipodi:ry="21.718279"
       sodipodi:start="0"
       sodipodi:end="6.1395273"
       sodipodi:open="true"
       d="m 243.95185,747.29602 a 21.718279,21.718279 0 0 1 -20.93845,21.70427 21.718279,21.718279 0 0 1 -22.44211,-20.14561 21.718279,21.718279 0 0 1 19.3268,-23.151 21.718279,21.718279 0 0 1 23.83003,18.48306" />
    <rect
       style="fill:#008000;fill-opacity:1;stroke:none;stroke-width:20;stroke-linejoin:round;stroke-miterlimit:4;stroke-dasharray:none;stroke-opacity:1"
       id="rect4260"
       width="6.9249172"
       height="52.837303"
       x="24.363625"
       y="692.91406"
       transform="matrix(0.99900791,-0.04453317,0.12743723,0.99184664,0,0)" />
    <rect
       style="fill:#008000;fill-opacity:1;stroke:none;stroke-width:20;stroke-linejoin:round;stroke-miterlimit:4;stroke-dasharray:none;stroke-opacity:1"
       id="rect4260-3"
       width="6.9249172"
       height="52.837303"
       x="214.45421"
       y="761.68909"
       transform="matrix(0.99087534,0.13478155,-0.05193282,0.99865058,0,0)"
       inkscape:transform-center-x="0.00040255212"
       inkscape:transform-center-y="0.48182414" />
    <rect
       style="fill:#008000;fill-opacity:1;stroke:none;stroke-width:20;stroke-linejoin:round;stroke-miterlimit:4;stroke-dasharray:none;stroke-opacity:1"
       id="rect4260-3-4"
       width="6.9249172"
       height="52.837303"
       x="-293.2764"
       y="905.36322"
       transform="matrix(0.85809855,-0.51348503,0.58305018,0.81243614,0,0)"
       inkscape:transform-center-x="-0.30057341"
       inkscape:transform-center-y="0.37661176" />
    <rect
       style="fill:#008000;fill-opacity:1;stroke:none;stroke-width:20;stroke-linejoin:round;stroke-miterlimit:4;stroke-dasharray:none;stroke-opacity:1"
       id="rect4260-3-4-6"
       width="6.9249172"
       height="52.837303"
       x="700.88226"
       y="-86.08474"
       transform="matrix(0.25059549,0.96809189,-0.94390548,0.33021574,0,0)"
       inkscape:transform-center-x="0.44610258"
       inkscape:transform-center-y="0.18215678" />
    <path
       style="fill:#800000;fill-opacity:1;stroke:none;stroke-width:5;stroke-linejoin:round;stroke-miterlimit:4;stroke-dasharray:none;stroke-opacity:1"
       id="path4153-64-8-1"
       sodipodi:type="arc"
       sodipodi:cx="359.08994"
       sodipodi:cy="748.67651"
       sodipodi:rx="21.718279"
       sodipodi:ry="21.718279"
       sodipodi:start="0"
       sodipodi:end="6.1395273"
       sodipodi:open="true"
       d="m 380.80821,748.67651 a 21.718279,21.718279 0 0 1 -20.93844,21.70428 21.718279,21.718279 0 0 1 -22.44211,-20.14562 21.718279,21.718279 0 0 1 19.3268,-23.151 21.718279,21.718279 0 0 1 23.83003,18.48306" />
    <rect
       style="fill:#008000;fill-opacity:1;stroke:none;stroke-width:20;stroke-linejoin:round;stroke-miterlimit:4;stroke-dasharray:none;stroke-opacity:1"
       id="rect4260-3-4-6-8"
       width="6.9249172"
       height="52.837303"
       x="683.52417"
       y="-451.15155"
       transform="matrix(-0.03903051,0.99923802,-0.9990235,0.04418199,0,0)"
       inkscape:transform-center-x="0.47965405"
       inkscape:transform-center-y="0.045837624" />
    <path
       style="fill:#800000;fill-opacity:1;stroke:none;stroke-width:5;stroke-linejoin:round;stroke-miterlimit:4;stroke-dasharray:none;stroke-opacity:1"
       id="path4153-64-8-1-5"
       sodipodi:type="arc"
       sodipodi:cx="415.71426"
       sodipodi:cy="701.64789"
       sodipodi:rx="21.718279"
       sodipodi:ry="21.718279"
       sodipodi:start="0"
       sodipodi:end="6.1395273"
       sodipodi:open="true"
       d="m 437.43254,701.64789 a 21.718279,21.718279 0 0 1 -20.93844,21.70427 21.718279,21.718279 0 0 1 -22.44211,-20.14561 21.718279,21.718279 0 0 1 19.3268,-23.151 21.718279,21.718279 0 0 1 23.83003,18.48305" />
    <path
       style="fill:#800000;fill-opacity:1;stroke:none;stroke-width:5;stroke-linejoin:round;stroke-miterlimit:4;stroke-dasharray:none;stroke-opacity:1"
       id="path4153-64-8-1-1"
       sodipodi:type="arc"
       sodipodi:cx="294.28571"
       sodipodi:cy="715.93353"
       sodipodi:rx="21.718279"
       sodipodi:ry="21.718279"
       sodipodi:start="2.0961709"
       sodipodi:end="5.444578"
       sodipodi:open="true"
       d="m 283.39318,734.7228 a 21.718279,21.718279 0 0 1 -10.77148,-20.32377 21.718279,21.718279 0 0 1 13.52871,-18.60254 21.718279,21.718279 0 0 1 22.65395,3.98488" />
    <path
       style="fill:#800000;fill-opacity:1;stroke:none;stroke-width:5;stroke-linejoin:round;stroke-miterlimit:4;stroke-dasharray:none;stroke-opacity:1"
       id="path4153-64-8-1-1-4"
       sodipodi:type="arc"
       sodipodi:cx="-335.90482"
       sodipodi:cy="-714.66174"
       sodipodi:rx="21.718279"
       sodipodi:ry="21.718279"
       sodipodi:start="2.0961709"
       sodipodi:end="5.444578"
       sodipodi:open="true"
       d="m -346.79734,-695.87248 a 21.718279,21.718279 0 0 1 -10.77148,-20.32377 21.718279,21.718279 0 0 1 13.52871,-18.60254 21.718279,21.718279 0 0 1 22.65395,3.98488"
       transform="matrix(-0.99968396,-0.02513906,0.02513906,-0.99968396,0,0)" />
    <rect
       style="fill:#008000;fill-opacity:1;stroke:none;stroke-width:20;stroke-linejoin:round;stroke-miterlimit:4;stroke-dasharray:none;stroke-opacity:1"
       id="rect4260-3-4-6-8-9"
       width="6.9249172"
       height="52.837303"
       x="806.75854"
       y="-478.40436"
       transform="matrix(-0.37418942,0.9273523,-0.95525201,-0.29579317,0,0)"
       inkscape:transform-center-x="0.46695359"
       inkscape:transform-center-y="-0.11882988" />
  </g>
</svg>
