<?xml version="1.0" encoding="UTF-8" standalone="no"?>
<!-- Created with Inkscape (http://www.inkscape.org/) -->

<svg
   xmlns:dc="http://purl.org/dc/elements/1.1/"
   xmlns:cc="http://creativecommons.org/ns#"
   xmlns:rdf="http://www.w3.org/1999/02/22-rdf-syntax-ns#"
   xmlns:svg="http://www.w3.org/2000/svg"
   xmlns="http://www.w3.org/2000/svg"
   xmlns:sodipodi="http://sodipodi.sourceforge.net/DTD/sodipodi-0.dtd"
   xmlns:inkscape="http://www.inkscape.org/namespaces/inkscape"
   width="1920"
   height="1080"
   viewBox="0 0 1920 1080"
   id="svg2"
   version="1.1"
   inkscape:version="0.91 r13725"
   sodipodi:docname="wallet-types.svg">
  <defs
     id="defs4">
    <style type="text/css">
    @font-face {
      font-family: 'ubuntu';
      src: url('../font/ubuntu.ttf') format('truetype');
    }
    </style>
  </defs>
  <sodipodi:namedview
     id="base"
     pagecolor="#ffffff"
     bordercolor="#666666"
     borderopacity="1.0"
     inkscape:pageopacity="0.0"
     inkscape:pageshadow="2"
     inkscape:zoom="0.49497475"
     inkscape:cx="794.63005"
     inkscape:cy="471.67028"
     inkscape:document-units="px"
     inkscape:current-layer="layer1"
     showgrid="false"
     inkscape:window-width="1920"
     inkscape:window-height="1017"
     inkscape:window-x="1272"
     inkscape:window-y="-8"
     inkscape:window-maximized="1"
     units="px" />
  <metadata
     id="metadata7">
    <rdf:RDF>
      <cc:Work
         rdf:about="">
        <dc:format>image/svg+xml</dc:format>
        <dc:type
           rdf:resource="http://purl.org/dc/dcmitype/StillImage" />
        <dc:title />
      </cc:Work>
    </rdf:RDF>
  </metadata>
  <g
     inkscape:label="Layer 1"
     inkscape:groupmode="layer"
     id="layer1"
     transform="translate(0,27.637808)">
    <g
       id="g4167"
       transform="matrix(1.4171847,0,0,1.4171847,-29.305238,-375.80041)">
      <path
         inkscape:connector-curvature="0"
         id="rect4136"
         d="m 395.00122,555.04483 0,9.86481 0,7.39861 0,5.42544 c 0,4.37207 3.51959,7.89166 7.89165,7.89166 l 234.21669,0 c 4.37207,0 7.89166,-3.51959 7.89166,-7.89166 l 0,-5.42544 0,-7.39861 0,-9.86481 -250,0 z m 108.92391,9.6178 32.15218,0 c 0.93109,0 1.68037,0.75024 1.68037,1.68133 l 0,7.98226 c 0,0.93109 -0.74928,1.68133 -1.68037,1.68133 l -32.15218,0 c -0.93109,0 -1.68037,-0.75024 -1.68037,-1.68133 l 0,-7.98226 c 0,-0.93109 0.74928,-1.68133 1.68037,-1.68133 z"
         style="fill:#555555;fill-opacity:1;stroke:#555555;stroke-width:0.48828125;stroke-opacity:1" />
      <rect
         ry="2.0078468"
         y="393.36655"
         x="413.93451"
         height="149.67194"
         width="212.13344"
         id="rect4158"
         style="fill:none;fill-opacity:1;stroke:#555555;stroke-width:12.20703125;stroke-miterlimit:4;stroke-dasharray:none;stroke-opacity:1" />
    </g>
    <text
       xml:space="preserve"
       style="font-style:normal;font-weight:normal;font-size:56.68738556px;line-height:125%;font-family:sans-serif;letter-spacing:0px;word-spacing:0px;fill:#555555;fill-opacity:1;stroke:none;stroke-width:1px;stroke-linecap:butt;stroke-linejoin:miter;stroke-opacity:1"
       x="706.10339"
       y="596.09467"
       id="text4176"
       sodipodi:linespacing="125%"><tspan
         sodipodi:role="line"
         x="706.10339"
         y="596.09467"
         id="tspan4180"
         style="font-style:normal;font-variant:normal;font-weight:normal;font-stretch:normal;font-size:50px;font-family:ubuntu;-inkscape-font-specification:ubuntu;text-align:center;text-anchor:middle;fill:#555555;fill-opacity:1">personal hot</tspan><tspan
         sodipodi:role="line"
         x="706.10339"
         y="658.59467"
         style="font-style:normal;font-variant:normal;font-weight:normal;font-stretch:normal;font-size:50px;font-family:ubuntu;-inkscape-font-specification:ubuntu;text-align:center;text-anchor:middle;fill:#555555;fill-opacity:1"
         id="tspan4190">wallet</tspan></text>
    <text
       xml:space="preserve"
       style="font-style:normal;font-weight:normal;font-size:56.68738556px;line-height:125%;font-family:sans-serif;letter-spacing:0px;word-spacing:0px;fill:#555555;fill-opacity:1;stroke:none;stroke-width:1px;stroke-linecap:butt;stroke-linejoin:miter;stroke-opacity:1"
       x="708.20831"
       y="791.49133"
       id="text4198"
       sodipodi:linespacing="125%"><tspan
         sodipodi:role="line"
         id="tspan4200"
         x="708.20831"
         y="791.49133"
         style="font-style:normal;font-variant:normal;font-weight:normal;font-stretch:normal;font-size:50px;font-family:ubuntu;-inkscape-font-specification:ubuntu;text-align:center;text-anchor:middle;fill:#555555;fill-opacity:1">offline transaction</tspan><tspan
         sodipodi:role="line"
         x="708.20831"
         y="853.99133"
         id="tspan4202"
         style="font-style:normal;font-variant:normal;font-weight:normal;font-stretch:normal;font-size:50px;font-family:ubuntu;-inkscape-font-specification:ubuntu;text-align:center;text-anchor:middle;fill:#555555;fill-opacity:1">signing</tspan></text>
    <g
       transform="matrix(0.69307092,0,0,0.69307092,19.488572,-238.18164)"
       id="layer1-3"
       inkscape:label="1. réteg"
       style="stroke:#555555;stroke-opacity:1">
      <path
         inkscape:connector-curvature="0"
         id="path4714"
         d="m 234.97972,645.9132 a 131.24841,150.44837 0 0 0 -123.08294,98.75103 96.002521,101.15248 0 0 0 -2.99292,-0.15773 96.002521,101.15248 0 0 0 -96.00264,101.15112 96.002521,101.15248 0 0 0 96.00264,101.15357 96.002521,101.15248 0 0 0 3.2198,-0.1214 c 0.32523,0.0764 0.66153,0.1214 1.00781,0.1214 l 121.84825,0 153.76696,0 c 0.45626,0 0.88889,-0.0928 1.30667,-0.22326 a 105.04217,116.4132 0 0 0 4.00293,0.22326 105.04217,116.4132 0 0 0 105.0425,-116.41323 105.04217,116.4132 0 0 0 -105.0425,-116.41324 105.04217,116.4132 0 0 0 -43.7988,10.75798 131.24841,150.44837 0 0 0 -115.27776,-78.8295 z"
         style="fill:none;fill-opacity:1;stroke:#555555;stroke-width:25;stroke-miterlimit:4;stroke-dasharray:none;stroke-opacity:1" />
    </g>
    <text
       xml:space="preserve"
       style="font-style:normal;font-weight:normal;font-size:56.68738556px;line-height:125%;font-family:sans-serif;letter-spacing:0px;word-spacing:0px;fill:#555555;fill-opacity:1;stroke:none;stroke-width:1px;stroke-linecap:butt;stroke-linejoin:miter;stroke-opacity:1"
       x="195.38559"
       y="596.09467"
       id="text4176-4"
       sodipodi:linespacing="125%"><tspan
         sodipodi:role="line"
         x="195.38559"
         y="596.09467"
         style="font-style:normal;font-variant:normal;font-weight:normal;font-stretch:normal;font-size:50px;font-family:ubuntu;-inkscape-font-specification:ubuntu;text-align:center;text-anchor:middle;fill:#555555;fill-opacity:1"
         id="tspan4190-0">hosted wallet</tspan><tspan
         sodipodi:role="line"
         x="195.38559"
         y="658.59467"
         style="font-style:normal;font-variant:normal;font-weight:normal;font-stretch:normal;font-size:50px;font-family:ubuntu;-inkscape-font-specification:ubuntu;text-align:center;text-anchor:middle;fill:#555555;fill-opacity:1"
         id="tspan4227">service</tspan></text>
    <text
       xml:space="preserve"
       style="font-style:normal;font-weight:normal;font-size:56.68738556px;line-height:125%;font-family:sans-serif;letter-spacing:0px;word-spacing:0px;fill:#555555;fill-opacity:1;stroke:none;stroke-width:1px;stroke-linecap:butt;stroke-linejoin:miter;stroke-opacity:1"
       x="196.25594"
       y="791.49133"
       id="text4229"
       sodipodi:linespacing="125%"><tspan
         sodipodi:role="line"
         id="tspan4231"
         x="196.25594"
         y="791.49133"
         style="font-style:normal;font-variant:normal;font-weight:normal;font-stretch:normal;font-size:50px;font-family:ubuntu;-inkscape-font-specification:ubuntu;text-align:center;text-anchor:middle;fill:#555555;fill-opacity:1">online personal</tspan><tspan
         sodipodi:role="line"
         x="196.25594"
         y="853.99133"
         id="tspan4233"
         style="font-style:normal;font-variant:normal;font-weight:normal;font-stretch:normal;font-size:50px;font-family:ubuntu;-inkscape-font-specification:ubuntu;text-align:center;text-anchor:middle;fill:#555555;fill-opacity:1">wallet service</tspan></text>
    <text
       xml:space="preserve"
       style="font-style:normal;font-weight:normal;font-size:56.68738556px;line-height:125%;font-family:sans-serif;letter-spacing:0px;word-spacing:0px;fill:#555555;fill-opacity:1;stroke:none;stroke-width:1px;stroke-linecap:butt;stroke-linejoin:miter;stroke-opacity:1"
       x="1704.1858"
       y="595.28296"
       id="text4235"
       sodipodi:linespacing="125%"><tspan
         sodipodi:role="line"
         id="tspan4237"
         x="1704.1858"
         y="595.28296"
         style="font-size:50px;text-align:center;text-anchor:middle;fill:#555555;fill-opacity:1">hardware wallet</tspan></text>
    <g
       id="g4199"
       transform="matrix(1.4171847,0,0,1.4171847,982.96954,-375.6274)">
      <path
         sodipodi:nodetypes="cccccc"
         inkscape:connector-curvature="0"
         id="rect4182"
         d="m 81.007716,384.53418 129.209854,0 c 10.4247,12.73756 14.5835,17.9148 28.29199,35.83647 l 0,167.98354 -157.501844,0 z"
         style="fill:none;fill-opacity:1;stroke:#555555;stroke-width:10.46570206;stroke-linejoin:miter;stroke-miterlimit:4;stroke-dasharray:none;stroke-opacity:1" />
      <path
         inkscape:connector-curvature="0"
         id="path4187"
         d="m 99.625706,421.88577 95.686414,0"
         style="fill:none;fill-opacity:1;fill-rule:evenodd;stroke:#646464;stroke-width:7.97151566;stroke-linecap:butt;stroke-linejoin:miter;stroke-miterlimit:4;stroke-dasharray:none;stroke-opacity:1" />
      <path
         inkscape:connector-curvature="0"
         id="path4187-3"
         d="m 99.625706,445.32894 113.328594,0"
         style="fill:none;fill-opacity:1;fill-rule:evenodd;stroke:#c8c8c8;stroke-width:14.5788393;stroke-linecap:butt;stroke-linejoin:miter;stroke-miterlimit:4;stroke-dasharray:none;stroke-opacity:1" />
      <path
         inkscape:connector-curvature="0"
         id="path4187-6"
         d="m 99.625706,469.04123 101.965834,0"
         style="fill:none;fill-opacity:1;fill-rule:evenodd;stroke:#969696;stroke-width:10.80365086;stroke-linecap:butt;stroke-linejoin:miter;stroke-miterlimit:4;stroke-dasharray:none;stroke-opacity:1" />
      <path
         inkscape:connector-curvature="0"
         id="path4187-9"
         d="m 99.625706,491.58734 105.554074,0"
         style="fill:none;fill-opacity:1;fill-rule:evenodd;stroke:#787878;stroke-width:11.30295753;stroke-linecap:butt;stroke-linejoin:miter;stroke-miterlimit:4;stroke-dasharray:none;stroke-opacity:1" />
      <path
         inkscape:connector-curvature="0"
         id="path4187-2"
         d="m 99.625706,511.62168 95.686414,0"
         style="fill:none;fill-opacity:1;fill-rule:evenodd;stroke:#d2d2d2;stroke-width:7.97151566;stroke-linecap:butt;stroke-linejoin:miter;stroke-miterlimit:4;stroke-dasharray:none;stroke-opacity:1" />
      <path
         inkscape:connector-curvature="0"
         id="path4187-3-6"
         d="m 99.625706,533.80897 113.328594,0"
         style="fill:none;fill-opacity:1;fill-rule:evenodd;stroke:#646464;stroke-width:14.5788393;stroke-linecap:butt;stroke-linejoin:miter;stroke-miterlimit:4;stroke-dasharray:none;stroke-opacity:1" />
      <path
         inkscape:connector-curvature="0"
         id="path4187-3-5"
         d="m 99.625706,557.25214 82.230514,0"
         style="fill:none;fill-opacity:1;fill-rule:evenodd;stroke:#b4b4b4;stroke-width:10.8843298;stroke-linecap:butt;stroke-linejoin:miter;stroke-miterlimit:4;stroke-dasharray:none;stroke-opacity:1" />
    </g>
    <text
       xml:space="preserve"
       style="font-style:normal;font-weight:normal;font-size:56.68738556px;line-height:125%;font-family:sans-serif;letter-spacing:0px;word-spacing:0px;fill:#555555;fill-opacity:1;stroke:none;stroke-width:1px;stroke-linecap:butt;stroke-linejoin:miter;stroke-opacity:1"
       x="1207.7302"
       y="595.28296"
       id="text4235-4"
       sodipodi:linespacing="125%"><tspan
         sodipodi:role="line"
         id="tspan4237-6"
         x="1207.7302"
         y="595.28296"
         style="font-size:50px;text-align:center;text-anchor:middle;fill:#555555;fill-opacity:1">paper wallet</tspan></text>
    <text
       xml:space="preserve"
       style="font-style:normal;font-weight:normal;font-size:56.68738556px;line-height:125%;font-family:sans-serif;letter-spacing:0px;word-spacing:0px;fill:#555555;fill-opacity:1;stroke:none;stroke-width:1px;stroke-linecap:butt;stroke-linejoin:miter;stroke-opacity:1"
       x="1207.7302"
       y="790.67963"
       id="text4257"
       sodipodi:linespacing="125%"><tspan
         sodipodi:role="line"
         id="tspan4259"
         x="1207.7302"
         y="790.67963"
         style="font-size:50px;text-align:center;text-anchor:middle;fill:#555555;fill-opacity:1">brain wallet</tspan></text>
    <path
       inkscape:connector-curvature="0"
       d=""
       style="opacity:1;fill:none;fill-opacity:1;stroke:#555555;stroke-width:8;stroke-linejoin:miter;stroke-miterlimit:4;stroke-dasharray:none;stroke-opacity:1"
       id="path4198"
       r="20.350384"
       cy="477.15787"
       cx="511.48187" />
    <g
       id="g4201"
       transform="matrix(0.49544316,0.49544316,-0.49544316,0.49544316,1168.4677,-916.05049)">
      <path
         inkscape:connector-curvature="0"
         id="rect4165-9"
         d="m 1885.1682,475.62127 0,344.16219 c 0,10.34335 -7.1551,18.6703 -16.0429,18.6703 l -170.3919,0 c -8.8877,0 -16.0428,-8.32695 -16.0428,-18.6703 l 0,-344.16219 c 0,-10.34334 7.1551,-18.6703 16.0428,-18.6703 l 170.3919,0 c 8.8878,0 16.0429,8.32696 16.0429,18.6703 z"
         style="opacity:1;fill:#555555;fill-opacity:1;stroke:none;stroke-width:2.98600006;stroke-linejoin:miter;stroke-miterlimit:4;stroke-dasharray:none;stroke-opacity:0.86666667" />
      <rect
         transform="matrix(0,1,-1,0,0,0)"
         ry="0"
         y="-1847.7673"
         x="841.27527"
         height="127.67567"
         width="127.67567"
         id="rect4169-6"
         style="opacity:1;fill:#555555;fill-opacity:1;stroke:none;stroke-width:2.98600006;stroke-linejoin:miter;stroke-miterlimit:4;stroke-dasharray:none;stroke-opacity:0.86666667" />
      <g
         transform="matrix(0.88696339,0,0,0.88696339,1354.2337,176.93148)"
         id="g4298">
        <path
           inkscape:connector-curvature="0"
           style="opacity:1;fill:none;fill-opacity:1;stroke:#eeeeee;stroke-width:7.83764887;stroke-linejoin:miter;stroke-miterlimit:4;stroke-dasharray:none;stroke-opacity:1"
           d="m 484.45703,-84.681641 a 21.081175,21.081175 0 0 0 -21.08203,21.080079 21.081175,21.081175 0 0 0 0.125,2.08789 l 0,7.123047 41.91211,0 0,-6.976563 a 21.081175,21.081175 0 0 0 0.125,-2.234374 21.081175,21.081175 0 0 0 -21.08008,-21.080079 z m -23.02734,30.322266 c -3.93181,0 -7.09571,2.733786 -7.09571,6.128906 l 0,28.388672 c 0,3.39513 3.1639,6.128906 7.09571,6.128906 l 46.05273,0 c 3.93181,0 7.09766,-2.733776 7.09766,-6.128906 l 0,-28.388672 c 0,-3.39512 -3.16585,-6.128906 -7.09766,-6.128906 l -46.05273,0 z"
           transform="translate(0,540.36216)"
           id="path4251" />
        <path
           style="opacity:1;fill:#eeeeee;fill-opacity:1;stroke:none;stroke-width:8.59899998;stroke-linejoin:miter;stroke-miterlimit:4;stroke-dasharray:none;stroke-opacity:1"
           d="m 458.58789,482.43585 c -4.39234,0 -7.92774,3.5354 -7.92774,7.92773 l 0,32.53711 c 0,4.39234 3.5354,7.92774 7.92774,7.92774 l 51.73828,0 c 4.39234,0 7.92774,-3.5354 7.92774,-7.92774 l 0,-32.53711 c 0,-4.39233 -3.5354,-7.92773 -7.92774,-7.92773 l -51.73828,0 z m 25.86718,8.54687 a 7.666236,7.666236 0 0 1 7.66797,7.66602 7.666236,7.666236 0 0 1 -3.35351,6.33008 l 2.06836,17.30273 -12.58204,0 2,-17.22656 a 7.666236,7.666236 0 0 1 -3.46484,-6.40625 7.666236,7.666236 0 0 1 7.66406,-7.66602 z"
           id="rect4286"
           inkscape:connector-curvature="0" />
      </g>
      <circle
         r="67.366142"
         cy="612.6922"
         cx="1783.9294"
         id="path4302"
         style="opacity:1;fill:none;fill-opacity:1;stroke:#eeeeee;stroke-width:7.9421134;stroke-linejoin:miter;stroke-miterlimit:4;stroke-dasharray:none;stroke-opacity:1" />
    </g>
  </g>
</svg>
